<svg width="200" height="200" viewBox="0 0 200 200" fill="none" xmlns="http://www.w3.org/2000/svg">
<rect width="200" height="200" rx="30" fill="black"/>
<path d="M70.36 44.2L70.84 43.72H99.32C118.627 43.72 128.653 43.7733 129.4 43.88C134.733 44.4133 139.267 45.96 143 48.52C145.347 50.0133 147.267 51.88 148.76 54.12C150.36 56.7867 151.427 59.3467 151.96 61.8C152.387 64.2533 152.387 66.92 151.96 69.8C150.253 78.76 144.493 85.9067 134.68 91.24C134.147 91.56 133.613 91.8267 133.08 92.04C131.053 93.1067 128.28 94.2267 124.76 95.4C123.693 95.5067 123.16 95.6667 123.16 95.88C124.547 95.88 126.467 96.4133 128.92 97.48C136.92 100.573 141.667 105.907 143.16 113.48C143.373 114.76 143.48 116.093 143.48 117.48C143.48 125.053 140.12 132.36 133.4 139.4C133.187 139.613 132.973 139.827 132.76 140.04C126.893 145.907 119.907 149.853 111.8 151.88C109.24 152.52 104.6 152.84 97.88 152.84C98.3067 152.84 90.84 152.893 75.48 153C54.7867 153 44.2267 152.84 43.8 152.52C43.6933 152.52 43.5867 152.307 43.48 151.88C43.2667 151.56 43.4267 150.333 43.96 148.2C44.4933 145.96 44.92 144.733 45.24 144.52L45.72 144.04H50.84C55.7467 143.933 58.52 143.72 59.16 143.4C59.6933 143.08 60.12 142.44 60.44 141.48C61.1867 139.347 64.8667 124.947 71.48 98.28C78.84 68.84 82.52 54.0133 82.52 53.8C82.52 53.48 82.4133 53.32 82.2 53.32C81.56 53.1067 79.0533 52.8933 74.68 52.68C70.9467 52.68 68.8667 52.3067 68.44 51.56C68.3333 51.24 68.4933 50.0133 68.92 47.88C69.4533 45.8533 69.9333 44.6267 70.36 44.2ZM125.72 52.84C125.187 52.7333 121.027 52.68 113.24 52.68C105.347 52.68 100.92 52.7867 99.96 53C99.4267 53.2133 99.1067 53.4267 99 53.64L93.88 73.16L89.08 92.36H100.28C107.853 92.36 112.12 92.2533 113.08 92.04C119.693 90.6533 125.08 86.8133 129.24 80.52C133.827 73.6933 135.213 67.08 133.4 60.68C132.227 56.3067 129.667 53.6933 125.72 52.84ZM115.64 100.04C115 99.9333 110.04 99.88 100.76 99.88H87.16L81.88 121.48C78.2533 135.773 76.44 143.133 76.44 143.56C76.44 143.773 76.8667 143.88 77.72 143.88C78.04 143.987 82.52 144.04 91.16 144.04L103.48 143.88L104.92 143.56C112.6 141.32 118.307 136.413 122.04 128.84C123.64 125.533 124.653 122.013 125.08 118.28C125.827 110.707 124.067 105.267 119.8 101.96C118.52 101 117.133 100.36 115.64 100.04Z" fill="white"/>
</svg>
