<svg width="200" height="200" viewBox="0 0 200 200" fill="none" xmlns="http://www.w3.org/2000/svg">
<rect width="200" height="200" rx="30" fill="#7091C2"/>
<path d="M70.36 56.2L70.84 55.72H99.32C118.627 55.72 128.653 55.7733 129.4 55.88C134.733 56.4133 139.267 57.96 143 60.52C145.347 62.0133 147.267 63.88 148.76 66.12C150.36 68.7867 151.427 71.3467 151.96 73.8C152.387 76.2533 152.387 78.92 151.96 81.8C150.253 90.76 144.493 97.9067 134.68 103.24C134.147 103.56 133.613 103.827 133.08 104.04C131.053 105.107 128.28 106.227 124.76 107.4C123.693 107.507 123.16 107.667 123.16 107.88C124.547 107.88 126.467 108.413 128.92 109.48C136.92 112.573 141.667 117.907 143.16 125.48C143.373 126.76 143.48 128.093 143.48 129.48C143.48 137.053 140.12 144.36 133.4 151.4C133.187 151.613 132.973 151.827 132.76 152.04C126.893 157.907 119.907 161.853 111.8 163.88C109.24 164.52 104.6 164.84 97.88 164.84C98.3067 164.84 90.84 164.893 75.48 165C54.7867 165 44.2267 164.84 43.8 164.52C43.6933 164.52 43.5867 164.307 43.48 163.88C43.2667 163.56 43.4267 162.333 43.96 160.2C44.4933 157.96 44.92 156.733 45.24 156.52L45.72 156.04H50.84C55.7467 155.933 58.52 155.72 59.16 155.4C59.6933 155.08 60.12 154.44 60.44 153.48C61.1867 151.347 64.8667 136.947 71.48 110.28C78.84 80.84 82.52 66.0133 82.52 65.8C82.52 65.48 82.4133 65.32 82.2 65.32C81.56 65.1067 79.0533 64.8933 74.68 64.68C70.9467 64.68 68.8667 64.3067 68.44 63.56C68.3333 63.24 68.4933 62.0133 68.92 59.88C69.4533 57.8533 69.9333 56.6267 70.36 56.2ZM125.72 64.84C125.187 64.7333 121.027 64.68 113.24 64.68C105.347 64.68 100.92 64.7867 99.96 65C99.4267 65.2133 99.1067 65.4267 99 65.64L93.88 85.16L89.08 104.36H100.28C107.853 104.36 112.12 104.253 113.08 104.04C119.693 102.653 125.08 98.8133 129.24 92.52C133.827 85.6933 135.213 79.08 133.4 72.68C132.227 68.3067 129.667 65.6933 125.72 64.84ZM115.64 112.04C115 111.933 110.04 111.88 100.76 111.88H87.16L81.88 133.48C78.2533 147.773 76.44 155.133 76.44 155.56C76.44 155.773 76.8667 155.88 77.72 155.88C78.04 155.987 82.52 156.04 91.16 156.04L103.48 155.88L104.92 155.56C112.6 153.32 118.307 148.413 122.04 140.84C123.64 137.533 124.653 134.013 125.08 130.28C125.827 122.707 124.067 117.267 119.8 113.96C118.52 113 117.133 112.36 115.64 112.04Z" fill="white"/>
</svg>
